<?xml version="1.0" standalone="no"?>
<!DOCTYPE svg PUBLIC "-//W3C//DTD SVG 20010904//EN"
 "http://www.w3.org/TR/2001/REC-SVG-20010904/DTD/svg10.dtd">
<svg version="1.0" xmlns="http://www.w3.org/2000/svg"
 width="128.000000pt" height="128.000000pt" viewBox="0 0 128.000000 128.000000"
 preserveAspectRatio="xMidYMid meet">
<metadata>
Created by potrace 1.11, written by Peter Selinger 2001-2013
</metadata>
<g transform="translate(0.000000,128.000000) scale(0.100000,-0.100000)"
fill="#000000" stroke="none">
<path d="M73 1255 c-18 -8 -42 -29 -53 -47 -19 -32 -20 -49 -20 -571 0 -577 1
-585 51 -621 21 -14 82 -16 589 -16 507 0 568 2 589 16 50 36 51 44 51 616 0
596 1 585 -70 620 -32 16 -80 18 -570 18 -437 -1 -541 -3 -567 -15z"/>
</g>
</svg>
